<svg xmlns="http://www.w3.org/2000/svg" width="24" height="24">
    <rect width="24" height="24" opacity="0"></rect>
    <g>
        <path d="M10.73 15.74Q11.11 15.74 11.46 15.6Q11.81 15.46 12.1 15.19L17.28 10.01Q17.5 9.79 17.5 9.48Q17.5 9.17 17.28 8.93Q17.04 8.71 16.74 8.71Q16.44 8.71 16.2 8.93L11.04 14.11Q10.92 14.23 10.73 14.23Q10.54 14.23 10.42 14.11L7.78 11.47Q7.56 11.26 7.25 11.26Q6.94 11.26 6.72 11.47Q6.5 11.69 6.5 12Q6.5 12.31 6.72 12.53L9.36 15.19Q9.96 15.74 10.73 15.74Z"
              fill="rgba(0,0,0,0.9019607843137255)"></path>
        <path d="M11.42 22.92Q11.69 22.99 12.04 22.99Q12.38 22.99 12.6 22.92Q15.17 22.15 17.15 20.42Q19.13 18.7 20.21 16.31Q21.29 13.92 21.29 11.23L21.29 6.43Q21.29 5.81 20.98 5.3Q20.66 4.8 20.11 4.56L12.96 1.2Q12.5 1.01 12.01 1.01Q11.52 1.01 11.06 1.2L3.89 4.56Q3.36 4.8 3.04 5.29Q2.71 5.78 2.71 6.41L2.71 11.21Q2.71 13.85 3.82 16.25Q4.92 18.65 6.9 20.4Q8.88 22.15 11.42 22.92ZM11.86 21.48Q9.65 20.81 7.9 19.27Q6.14 17.74 5.17 15.62Q4.2 13.51 4.2 11.21L4.2 6.41Q4.2 6.24 4.28 6.11Q4.37 5.98 4.51 5.9L11.69 2.54Q11.83 2.5 12.01 2.5Q12.19 2.5 12.34 2.54L19.49 5.9Q19.63 5.98 19.72 6.11Q19.8 6.24 19.8 6.41L19.8 11.21Q19.8 13.56 18.84 15.66Q17.88 17.76 16.16 19.28Q14.45 20.81 12.19 21.48Q12 21.53 11.86 21.48Z"
              fill="rgba(0,0,0,0.9019607843137255)"></path>
    </g>
</svg>